<svg width="57" height="58" viewBox="0 0 57 58" fill="none" xmlns="http://www.w3.org/2000/svg">
<g id="noun-easy-2674124 1" clip-path="url(#clip0_129_102)">
<g id="solid create">
<path id="Vector" d="M46.819 15.2651L48.748 14.7351C48.2677 12.9925 47.6539 11.2895 46.912 9.64111L45.089 10.4621C45.788 12.0164 46.3664 13.6221 46.819 15.2651Z" fill="#EDF200"/>
<path id="Vector_2" d="M45.875 7.52907C45.502 6.82907 45.102 6.13707 44.686 5.47107L42.986 6.52907C43.378 7.15807 43.755 7.81107 44.107 8.47107L45.875 7.52907Z" fill="#EDF200"/>
<path id="Vector_3" d="M13 37H7V39H13V37Z" fill="#EDF200"/>
<path id="Vector_4" d="M2 42H0V44H2V42Z" fill="#EDF200"/>
<path id="Vector_5" d="M8 42H4V44H8V42Z" fill="#EDF200"/>
<path id="Vector_6" d="M23 12H19V14H23V12Z" fill="#EDF200"/>
<path id="Vector_7" d="M38.544 40.9001C37.8174 38.3809 36.2084 36.2074 34.011 34.7771C33.2192 36.3987 32.2781 37.943 31.2 39.3901H33L31.188 39.3991C28.797 42.5959 25.7679 45.2611 22.2927 47.2256C18.8174 49.1901 14.9719 50.411 11 50.8111V52.7181C12.3249 52.9075 13.6616 53.0017 15 53.0001C19.6032 52.9972 24.1395 51.8983 28.2337 49.7942C32.3278 47.6901 35.8621 44.6413 38.544 40.9001Z" fill="#EDF200"/>
<path id="Vector_8" d="M45.771 27.5681C48.2658 27.9724 50.6127 29.0184 52.5813 30.6034C54.5499 32.1884 56.0726 34.258 57 36.6091C56.9461 33.5948 55.7992 30.7027 53.7724 28.4708C51.7457 26.239 48.9772 24.8193 45.982 24.4761C45.9635 25.5096 45.8931 26.5416 45.771 27.5681Z" fill="#D5DA00"/>
<path id="Vector_9" d="M30 19.0001C30.0066 22.6234 29.3715 26.2193 28.124 29.6211C30.115 28.5278 32.2544 27.7298 34.475 27.2521C35.3953 22.6639 35.1021 17.9149 33.6245 13.4747C32.1469 9.03456 29.536 5.05692 26.05 1.93506C25.8522 2.04947 25.7026 2.23174 25.629 2.44806C25.5857 2.58757 25.5722 2.73464 25.5894 2.8797C25.6066 3.02477 25.6542 3.16458 25.729 3.29006C28.5298 8.05146 30.0045 13.476 30 19.0001Z" fill="#FCFF53"/>
<path id="Vector_10" d="M44.288 29.2741C39.3305 28.1202 34.1241 28.7675 29.6 31.1001C32.2078 31.4162 34.6578 32.5182 36.6245 34.2596C38.5912 36.0011 39.9816 38.2997 40.611 40.8501C40.616 40.8711 40.621 40.8911 40.624 40.9121C40.8779 41.9216 41.0043 42.9591 41 44.0001C40.9938 46.4468 40.3005 48.8426 38.999 50.9145C37.6976 52.9864 35.8404 54.6512 33.639 55.7191C34.6258 55.9213 35.6318 56.0155 36.639 56.0001C39.741 55.9715 42.752 54.9482 45.2291 53.0807C47.7062 51.2132 49.5185 48.6 50.3997 45.6256C51.2808 42.6512 51.1842 39.4726 50.1239 36.5572C49.0637 33.6418 47.0959 31.1436 44.51 29.4301H44.489V29.4191C44.424 29.3701 44.358 29.3191 44.288 29.2741Z" fill="#D5DA00"/>
<path id="Vector_11" d="M36.582 26.8931C38.9885 26.5979 41.4262 26.6782 43.808 27.1311C43.9292 26.0917 43.9933 25.0464 44 24.0001C43.9953 19.3552 42.8772 14.7791 40.7393 10.6555C38.6015 6.53184 35.5062 2.9808 31.713 0.300057C31.5918 0.217376 31.4541 0.162031 31.3094 0.137857C31.1647 0.113683 31.0165 0.121258 30.875 0.160057C29.935 0.417057 29.002 0.735057 28.075 1.08206C31.4949 4.36153 34.0582 8.42984 35.5401 12.9304C37.0221 17.4309 37.3774 22.2263 36.575 26.8961L36.582 26.8931Z" fill="#FCFF53"/>
<path id="Vector_12" d="M26.584 33.1C23.2639 39.6112 17.7465 44.7372 11.009 47.57V48.798C15.5234 48.3057 19.839 46.6761 23.5521 44.0619C27.2653 41.4476 30.2545 37.934 32.24 33.85C30.8967 33.2893 29.4556 33.0004 28 33C27.5263 33.0016 27.0532 33.035 26.584 33.1Z" fill="#EDF200"/>
<path id="Vector_13" d="M10.457 20.9731C10.5758 22.349 11.2078 23.6299 12.2275 24.5612C13.2472 25.4926 14.58 26.0062 15.961 26.0001C18.0305 26.0033 20.0192 26.8042 21.5132 28.2364C23.0071 29.6685 23.8914 31.6215 23.982 33.6891C24.357 33.0521 24.724 32.4091 25.052 31.7401C25.8255 30.1631 26.4528 28.5186 26.926 26.8271C26.6253 25.4577 25.8654 24.2324 24.7724 23.3544C23.6794 22.4764 22.319 21.9985 20.917 22.0001H17.831C15.0456 21.9921 12.3605 20.9599 10.287 19.1001L10.457 20.9731Z" fill="#D5DA00"/>
<path id="Vector_14" d="M9.007 48.6231L9.008 47.925L7 47.9761V52.132L9.001 52.417L9.007 48.6231Z" fill="#767575"/>
<path id="Vector_15" d="M13 4H9V6H13V4Z" fill="#EDF200"/>
<path id="Vector_16" d="M7 4H5V6H7V4Z" fill="#EDF200"/>
<path id="Vector_17" d="M26 56H22V58H26V56Z" fill="#EDF200"/>
</g>
</g>
<defs>
<clipPath id="clip0_129_102">
<rect width="57" height="58" fill="white"/>
</clipPath>
</defs>
</svg>
