<?xml version="1.0" encoding="UTF-8"?> <svg xmlns="http://www.w3.org/2000/svg" viewBox="0 0 370 479"><defs><style>.a{fill:#331e0b;}.b{fill:#91562e;}.c{fill:#854419;}.d{fill:#eccb98;}.e{fill:#fff;}</style></defs><title>sasquatch</title><path class="a" d="M16.64,281.54c-8.49-4.92-16-12.66-16.6-23-.28-4.53,1-10.38,5-13.11a7.2,7.2,0,0,1,5.9-1c2.54.65,3.33,2.82,5.46,4,.9-.13,1.86-1.71,2.5-2.28a13.07,13.07,0,0,1,3.38-2.26,6.34,6.34,0,0,1,6.93.83c4.27,3.86.27,11.51-.78,16,7.38-2.91,13.8-7.79,21.45-10.17,1.6-.49,2.74-.57,3.73-2S55.26,245,56,243.38c1.65-3.6,3.81-7.27,5-11-1.13-.58-2.35.56-3.39-.37.67-1.75,3.07-3.32,4.38-4.57,1.89-1.82,3.79-3.62,5.66-5.45a44.25,44.25,0,0,0,4.7-5.25c.89-1.21,3.29-4,3-5.52-1.16-.27-1.85.9-2.86,1-1.18-2.15,5.27-7.38,6.38-8.81,2.61-3.35,4.79-7,7.22-10.5s5.3-6.89,8-10.3a7.9,7.9,0,0,0,1.84-4c.24-1.3,1.5-4,1.1-5.25-.72-.54-10.25,4.12-6.55-.78,2.12-2.82,8.16-3.24,9.12-7.12-2.62-.73-5.26.13-7.87-.5.06-3.28,6.43-3.44,8.58-4.67,3.76-2.16,6.19-5.37,8.82-8.72,5.3-6.77,12-14.18,15.18-22.24-3.09-1-6,1.75-9.18,1.11.15-3.94,7.38-6.35,10-8.36a52.44,52.44,0,0,0,9.86-10.69c5.92-8,11-16.41,18.65-23,7.06-6.14,15.16-10.24,23.83-13.59,5.13-2,10.29-3.87,15.43-5.83,3.05-1.15,9.59-3.38,10.48-7.09-2.22-.09-2.78,2.68-5.29,2-.26-3.49,3.06-7.63,4.89-10.33a65.34,65.34,0,0,1,7.77-9.24c2.83-2.86,5.83-5.55,8.82-8.24,1.69-1.5,3.37-3,5-4.56.91-.86,4-3,3.95-4.28-1.23-1.21-3.81,1.16-4.84-.53s3.48-4.39,4.48-5.15c4.86-3.72,9-8.25,13.88-12A47.48,47.48,0,0,1,257.23,1.6C260.85.53,270.57-1.49,272,3.73c-1.2.89-2.69,0-4,.56,1.15,1.93,6.35,2.27,8.32,3.1a16.21,16.21,0,0,1,6.91,5.42c1.79,2.48,2.47,5.34,3.69,8.1,1.34,3,4.35,5.25,5.3,8.39-2.11.58-3.56-1.49-5.5-1.22-1.05,1.65,3.49,8.52,4.3,10.22a69.17,69.17,0,0,1,4.25,10.85c2,7,3.15,16-.74,22.59-1.78,3-4.11,4.9-4.38,8.6-.29,3.91-.35,7.6-1.29,11.45a70.93,70.93,0,0,1-3.8,11.72c-.44,1-.93,2.28-2.07,1-.95-1,.63-3.24-.5-4.22-.66.06-1.26,1.29-1.76,2.08s-1.45,2.91-2.15,4.09a6.18,6.18,0,0,0-1,4.17c.14,2.72.56,5.37.58,8,0,3.62-.95,6.92-1.37,10.46s.52,6.81,1.37,10.07A133.65,133.65,0,0,0,284,157.39a47.4,47.4,0,0,0,4.51,8.54c1.95,2.82,4.54,4.26,6.9,6.58-.69,3.78-5.94,1.15-7.89.21-.55,3,2.47,6.65,4.1,8.88,2.32,3.17,4.72,6.29,7.24,9.31,2.19,2.61,4.4,5.11,7.44,6.75a16.28,16.28,0,0,0,4.73,1.77c1.14.2,3.42-.34,4,1-1,1.69-3.34,1.84-4.41,3.39,1.48,3.85,5.42,7,8.28,9.82,3.63,3.57,7.21,7.19,10.81,10.79a44.65,44.65,0,0,0,10.37,7.92,26.65,26.65,0,0,0,6.24,2.54,18.41,18.41,0,0,0,7.08.26c2.41-.32,1.71,1.32,1.5,1.68,3,.58,5.48-4.39,8.84-4.36,4.77.05,6.41,5.22,6.24,9.14a13.42,13.42,0,0,1-2.47,4.54,25.18,25.18,0,0,1-4,4c-3.17,2.45-7.42,3.43-11.33,3.75-.43,1.5,1.91,3.92,2.56,5.22a14.44,14.44,0,0,1,1.58,5.88,20,20,0,0,1-3,11.69,15,15,0,0,1-8.07,6.25c-4.46,1.23-7.52-.68-10.05-4.2-3.42,1.51-8.17,2.73-11.75,1-1.65-.81-1.9-2.71-3.41-3.46-1.69-.85-3.87-.34-5.66-1.33a7.3,7.3,0,0,1-3-9.18c1.45-3.53,6.21-5.08,9.31-6.76-.52-2.86-4.36-2.88-6.61-2.87-3.72,0-7.29.48-10.94-.53-7.19-2-10.29-8.74-16.46-12.12-1.1,1.09-.33,6.4-2.84,5.49-1.35-.5-1-3.05-1.26-4.08a19.19,19.19,0,0,0-1.67-4.34,52,52,0,0,0-5.37-8.4c-2.17-2.91-4.2-6.24-6.64-8.91-1,1.38,1.08,7-2.32,5.17-1.43-.79-2.06-2.87-2.62-4.28a35.24,35.24,0,0,0-2.91-6,117.85,117.85,0,0,0-7.22-9.74c-1.2-1.52-2.38-3.05-3.49-4.63-.89-1.26-1.88-3.72-3.07-4.65-2,.9-3.35,4.4-4.36,6.24-1.18,2.16-2.5,4.22-3.8,6.3a22.78,22.78,0,0,0-3.25,6.64c-.48,2,0,3.74-1.83,5.17-1.05-2.28-.41-4.83-1.21-7.2-2.74.53-4.41,4.31-5.24,6.62-1,2.83-1.18,6.94-2.92,9.39-1.42-.55-1.06-2.24-2.1-3.06-2.5,1-3.36,4.69-3.92,7-.39,1.64-.64,3.32-1.07,5-.28,1-1,2.34-1,3.43.15,2.6,3.34,4.65,5.09,6.2,2.34,2.07,4.61,4.22,6.85,6.38a170.17,170.17,0,0,0,13,11.88,36.23,36.23,0,0,0,6.88,4c2.4,1.18,4,3.06,6.21,4.37-.5,1.18-1.8.14-2.25.8-.62.92,1,2.33,1.58,2.89,2.59,2.45,5.3,4.69,7.76,7.29a86.6,86.6,0,0,1,6.79,7.91c1.85,2.47,3.88,6.24,5.56,8.87,2.44,3.83,3.12,8.33,3.47,9.75,1,1.56,2.23,4.31,3.23,6a22.61,22.61,0,0,1,2.53,6.14c1.18,4.64.8,9.42.8,14.17a95.33,95.33,0,0,0,.84,14.91,23.08,23.08,0,0,0,1.88,6.55c.95,1.91,3,3.35,3.63,5.41-2.23,1.89-2.52-1.11-4.39-1.43-2.07-.36-1,3.2-.78,4.54a57.08,57.08,0,0,1,1,14.76c-.38,5-1.37,10-1.35,15a24.22,24.22,0,0,0,.75,6.05c.52,2,1.82,4,1.72,6.16-1.4.62-2.1-1.35-3.5-.88-.47,3.49,4.6,5.25,4.86,8.65-1.15,1.13-3.2-.94-4.05.69s1.89,4.51,2.59,5.75c2.6,4.58,4.26,9.8,8,13.69,3.17,3.33,7.68,3.88,12,2.3,2.25-.83,2.33-3,3.12-5.12a10.2,10.2,0,0,1,3.29-4.58A12.11,12.11,0,0,1,324,431.57a11.26,11.26,0,0,1,4.7,2.43c2.07,1.82,2,3.85,3.18,6.1,1,1.89,3.55,2.37,4.9,4.14s1.32,4,3.06,5.79c2.35,2.38,2.4,3.52,1.2,6.59a14.56,14.56,0,0,1-3.91,6.08c-4,3.51-8.95,4.26-13.65,6.49a36.24,36.24,0,0,1-15.78,3.23c-11.62,0-22.81-3.47-34.23-5.17-5.57-.82-11.16-1.55-16.65.07s-10.48,4.48-16,5.92c-5.22,1.36-11,1.71-16-.86-4.37-2.27-5.76-6.9-5.92-11.57-.11-3.28,1.07-5.72,1.74-8.79s-2.84-1.13-4.95-1.9c-3-1.1.07-2.36,1.35-3.15a14.24,14.24,0,0,0,5-5.65c2.83-5.36,3-12.14,3.35-18.05.17-3,.3-6.09.52-9.13.25-3.32,1.29-6.87,1.26-10.16-3.19.36-2.31,5.87-5.93,6.16-.85-3.45.51-7.66,1.27-11,.86-3.82,1.91-7.58,3-11.33a102.61,102.61,0,0,0,2.7-10.48c.47-2.56,1.84-7.87.64-10.32-1.17-.16-1.67,1.67-3,1.25-1.61-.5-1-2.19-.75-3.4a18.31,18.31,0,0,0-.87-10.48,32.31,32.31,0,0,0-5.21-8.25c-1.32-1.62-4-6.86-5.08-2.7-2.5.26-2.65-2.08-3.55-3.79a16.71,16.71,0,0,0-4.7-5.24c-2.53-1.92-2.2.07-1.22,2.3.67,1.52,2.73,4.54,1.33,6.17-2.66,0-4.1-6.25-6.43-5.63-1,3.33.7,8.18,1.36,11.46.81,4,1.86,8,2.78,12,.82,3.58,1,7.25,1.79,10.78.21.88,1.13,3.47-.81,3.2-1.27-.18-1.2-2.47-2.52-2.85a100.14,100.14,0,0,1-1.14,10.94c-.46,2.47-.64,6.59-3.14,7.86-1.22-2.14,1.49-11.92-3.06-12.12-1.14,2.15-1.24,5.31-2,7.68a61.77,61.77,0,0,1-2.73,7.31A70.68,70.68,0,0,1,182.68,406a126,126,0,0,1-10,11.91,40.57,40.57,0,0,0-5,5.91c-1.39,2.23-2.19,4.77-3.64,7-2-.58-1.44-2.56-2.22-3.82-3.52,1.41-7.21,5-9.78,7.75a17.16,17.16,0,0,0-4.49,11.54,11.45,11.45,0,0,0,1.21,6.1c.91,1.52,2.16,1.78,3.6,2.67,1.14.71,2.89,2.95,4.3,3s2-2.28,2.9-3.29a10.28,10.28,0,0,1,9.49-3.08,6.4,6.4,0,0,1,4.28,3.24c1.12,2.06,1.55,2.06,3.75,3,5.89,2.5,10.8,10.46,5.47,16-2.71,2.8-7.49,3.24-11.11,3.93-4.72.91-9.53.51-14.3.69-4.56.17-9.08.2-13.63,0-4.87-.17-9.56-1-14.37-1.59-17.45-2.14-22.94-21.88-37.8-28.67-3.9-1.78-8.51-3.61-11.49-6.78a24.71,24.71,0,0,1-6.15-11.88C71.9,420.46,77,415.38,85,412.07c.27-1.77-2.11-5.37-.32-6.85,2.2-1.81,3.17,2.17,4.18,3.18,2.89,2.89,11.12-.59,14.17-2,5.32-2.53,9.87-6.58,14.24-10.46,2-1.8,4.06-3.6,6-5.52,1.29-1.29,5.37-4.56,5.26-6.53-1.13-.44-2.54.35-3.57-.82,1.9-2.42,4.89-3.72,7.39-5.38a27.85,27.85,0,0,0,6.44-5.91c3-3.82,6.09-9.81,5.85-14.81-1.39.06-1.4,3.14-2.69.34-.84-1.81-.38-4.58-1.08-6.61s-1.88-4.1-2.52-6.3c-.69-2.37-1-5-2.48-7.05-1.41,1.53.29,6-1.6,6.95-2.56,1.33-1.89-4.89-2.1-6.17-.44-2.7-1.29-5.31-1.72-8s-.11-5.63-1-8.35c-1-3-.68-6.08-1.26-9.17-.54-2.89-1.48-5.66-2.14-8.51a84.58,84.58,0,0,1-1.34-10,14.19,14.19,0,0,0-2.64-6.58,47.56,47.56,0,0,1-4.29-8.42c-.57-1.26-.87-3.42-1.74-4.47s-1-.45-2.19-1.06c-4.19-2.26-4.1-11.28-4-15.27.2-6.29,2.17-11.88,3.29-18,.23-1.27.88-1.76-.43-2-1-.15-2.69,1.41-3.37,1.94-1.82,1.43-3.93,2.82-5.65,4.3-1.88,1.62-2.74,4.47-4,6.54a53.72,53.72,0,0,1-5.5,7.33,91.2,91.2,0,0,1-13.08,11.83c-2.69,2.06-5.45,4-8.25,5.93-.48.33-2,1.88-2.72,1.52-1-.48.47-1.49-1.1-1.39-.71,0-2.62,2.11-3.29,2.56a36.87,36.87,0,0,1-4,2.56A36,36,0,0,1,54,284.15c-.71.16-3.74.71-6,1.15s-7.35.87-10.05.11c-1.72-.49-7.42-2.7-9.3-3a9.65,9.65,0,0,1-6.19.93,17.43,17.43,0,0,1-5.79-1.76Z"></path><path class="b" d="M114.2,432.14a29.41,29.41,0,0,1,1.34-4.25c-1.26-1.42-2.69-.14-4-.24-1.45-2.27,5.46-5,3.26-7.42-1.24-1.37-7.78,2.93-9.27,3.2-.9-2,4.31-5.44,5.43-6.58.94-1,2.07-2.94-.07-3.56-1.08-.31-3.38,1-4.45,1.29-3.38.73-6.64.27-10,.25-2.39,0-6.19-.72-7.71-2.91,1.94-1.32,5-.86,7.18-.86a16.26,16.26,0,0,0,7.24-1.5c4.84-2.31,9.3-6.51,13.41-9.92,4.38-3.64,8.61-7.5,12.76-11.41,1.77-1.67,5-3.89,6.11-6.05,1.22-2.4-2.3-1.94.42-4.43,3.8-3.47,7.25-7,9.39-11.75a24.52,24.52,0,0,0,2-7.06c.28-2.29.82-6.9-.51-9-1-1.62-2.29-.24-3.59-1.19-1.45-1.05-2.17-5.16-2.69-6.73a84.16,84.16,0,0,1-2.43-8.51c-.24-1.07-.54-6.47-1.36-6.79-2.73-1.08-1.52,5.12-2.34,5.89-1.32,1.25-1.66-5.19-1.66-6.25,0-3.25.51-6.49.55-9.75,0-2.9.17-3.76-2.67-3.46-1-6-2.53-12-3.2-18,1.26-1,3.6,3.12,4.35,4a35,35,0,0,0,5.77,5.1c4.41,3.29,9.22,6,13.82,9a64.37,64.37,0,0,1,6.64,4.84c1,.89,4,5.09,5.06,5.13,3.37.14-2.19-9.14-1.62-10.66,4.09,1.5,7.73,5.15,11.54,7.32s7.92,4.19,11.82,6.4c3.4,1.92,9,4.4,11.16,7.77,1,1.48.8,4.09,1,5.8.33,2.62.67,5.24,1.07,7.85.63,4.22,1.48,8.49,2.34,12.61.15.74,1.31,4.5.74,5.05-.93.89-2-2.67-2.37-3.12-1.16-1.31-2.72-1.52-2.7.66,0,1.81,1.71,3.5,2.44,5.08s2.89,9.49.6,10.48c-.7-1.19-.73-2.61-1.34-3.83-.9-1.79-1.32-1.56-2.82-1.14-1.82.51-3.1-.67-3.36,1.51-.36,3,.17,5.93-.5,9a39.7,39.7,0,0,1-3.58,9.49,102.7,102.7,0,0,1-10.89,16.07c-2.08,2.63-4.22,5.21-6.31,7.83-.83,1-4.34,7-5.53,6.93-.39-1.82,2-3.9,1.13-5.37-1-1.68-2.47.19-3.1,1.06a53.92,53.92,0,0,1-7.59,8.82c-2.95,2.65-6,5.29-8,8.73a17,17,0,0,0-2.08,5.07c-.38,1.78.31,4.44-.46,6-1.89-.42-3.67-2.3-4.64-3.89s-.53-3.82-1.5-5.15c-2.81-3.84-5.32,7.16-7.66,2.84-.84-1.54,0-4.56.43-6.09.32-1.06,3.1-5.67,2.3-6.6-2.43-2.82-8,6.61-10.46,5.66-.41-1.3,1.24-2.56.63-3.95s-1.52-.88-2.49,0C118.76,433.47,116,433.74,114.2,432.14Z"></path><path class="b" d="M326.55,257.13c-2.77-.34-4.48-.6-5.73-3.33-.61-1.36-.59-6.36-3.19-5.24-2,.87.72,4.42-1.54,5.4-1.1.47-3.59,0-4.81,0a24.57,24.57,0,0,1-5.34-.54c-5.62-1.34-10.88-5.34-14.58-9.67a29.73,29.73,0,0,1-2.49-3.38c-.54-.86-1-2.67-1.77-3.31-2.5-2.19-2.19,3.47-2.74,4.52-1.43.22-4.69-7.27-5.39-8.39-2.09-3.36-4.3-6.67-6.57-9.91-1.38-2-2.75-7.45-5.23-8.23-3.92-1.22,0,5.52-.79,7-1.51.38-5.22-7.94-6.13-9.23-2.6-3.69-5.42-7.22-7.95-11-1.58-2.34-5.35-7.19-2.79-10.1,2.14-2.45,3.11,4.78,5.12,5.62,1.58-1.23.38-5,.59-6.76a21,21,0,0,1,2-6.42c2.32-5,5.09-9.67,7.3-14.69s4.21-10.05,6-15.22q1.35-3.9,2.63-7.82c.71-2.18,1.11-5,2.24-6.94,1.92,5.36,3.47,10.85,5.5,16.18a74,74,0,0,0,3.42,7.8c.64,1.25,4,4.83,3.8,6.1-1.12,1-4-3-4.37-3.78-.52-1.13-1.67-4.6-3.47-2.17-.9,1.23,2.09,6,2.69,7.27,1.32,2.86,2.67,5.7,4.17,8.47a59.81,59.81,0,0,0,9.35,13.33,35.15,35.15,0,0,0,5.68,4.79c1.33.9,6.2,2.51,6.69,3.94-.34,1-1.93.47-2.36,1.51-.3.71.66,1.76,1,2.21,1.59,2.09,3.78,3.77,5.62,5.63s3.5,3.73,5.35,5.51c1,.95,2.66,2.69,4.38,4.51s4.37,4.56,6,6.14a75.5,75.5,0,0,0,8.37,7,26.58,26.58,0,0,0,4.4,2.2c.79.3,3.79.56,4.27,1.28-.73,2.28-7.27,1.49-9,1.24-2.27-.34-4.95-3-6.21-.37.37,1.76,5.51,3.92,7,4.92,1.95,1.38,4.4,2.82,5.07,5.28-1.09.64-3.94.19-5.08-.28s-1.72-.12-1.88.37a15.62,15.62,0,0,1-3.7,6C330.5,256.2,328.69,256.68,326.55,257.13Z"></path><path class="b" d="M283.28,92.42c-.71-2-.51-5.55.73-6.27,1.83-1.19-1.13-3.67,0-5,1.47-1.73,2.89,1.59,3.15,2.61.58,2.27,0,4.73-.63,6.94-.3,1.06-1.29,6-2.54,6C282.86,95.71,284.33,93.55,283.28,92.42Z"></path><path class="b" d="M300.88,446.5c-7.28-1.15-9.61-8.55-13.26-14.06-.91-1.38-2.34-2.35-3.15-3.74a30.24,30.24,0,0,1-1.82-4.75c-1-2.59-2.85-5.56.32-6.83.45-1.16-1.34-3.57-1.78-4.52a17.94,17.94,0,0,1-1.77-5.37c-.11-1-.35-3.7.63-4.3s1.37.74,1.88.57c1.49-.52.95-7.71,1.11-9.31.39-3.86.89-7.65.94-11.54a48.41,48.41,0,0,0-1-10.4c-.4-2-.83-3.93-1.25-5.9-.31-1.43-1.16-3.38-.41-4.78,2-.13,2-.62,1.7-2.42-.44-2.49-.83-4.87-1.08-7.4-.57-5.64.22-11-.07-16.63a25.39,25.39,0,0,0-4.64-14.23,54.73,54.73,0,0,0-4.77-6c-1.4-1.52-3.51-3.29-2.25-5.59,1.11.22,2.86,4.5,3.94,2.2.61-1.29-2.88-5.74-3.5-6.82a87.71,87.71,0,0,0-11.84-15.93,66.21,66.21,0,0,0-14.32-12.13c-2.28-1.35-5.69-.79-7.61-2.45-3.23-2.79,3.18-1.49,4.15-1.69-.13-1.34-3.62-3.39-4.69-4.39-2-1.9-4.06-3.84-6.07-5.77-4.14-4-8.25-8-12.47-11.84A134.94,134.94,0,0,0,205,240a55.34,55.34,0,0,0-7.18-4.45c-.94-.48-4.76-2.13-4-3.6,2.64-1.45,9.23,3.62,11.21,5.1,2.76,2.06,5.72,5.33,9.19,6.16,1.25-.65,1.27-4.29,1.58-5.49a43.24,43.24,0,0,1,1.94-5.86c1.29-3.14,3.08-8.35,6.23-9.64.43-.18.77.32,1.27,0s.62-1.33.84-1.83a28.82,28.82,0,0,1,3.39-5.77c.71-.94,2.41-3.63,3.61-3.91,1.59-.37,1.7,1.74,3.09,1.58,3.07-5.85,6.68-11,8.86-17.27.82-2.36,2.44-4,2.92-6.6.44-2.33.25-7.09,2.45-8.61,3.44.64-.21,7.5,2.44,8.43,1.33-.84,1.93-3.87,2.49-5.19.86-2,1.76-4,2.67-6,1.71-3.76,3.44-7.51,5.11-11.29a183.55,183.55,0,0,0,8.63-23.05c2-7.07,3.68-15.74,3.11-23.09-.15-2-.21-3.93-.34-5.9-.12-1.75.18-2.8-1.65-1.91-1.34.65-2.55,2.86-3.19,4.12-.51,1-.9,3.61-2.17,4-1.91-1-2.57-6.34-4.23-2.47a10.74,10.74,0,0,0-.92,5.59c.1.66,1.4,3.48-.17,3.47-.92,0-4.68-6.73-5.57-7.71a38.42,38.42,0,0,0-4.42-3.93c-1-.78-2.76-3-4.22-2.72-.82,1.11.22,4.73-2.25,4.66-1.22,0-1-1-1.76-1.68a12,12,0,0,0-2.55-1.24,36.25,36.25,0,0,1-11.34-9.34c-3.36-4-5.35-8.93-7-13.82-.9-2.66-1.66-5.36-2.36-8.08-.53-2.08-2.06-5.37-.93-7.38,3.37.6,3.5,7.28,4.16,9.87,1,4,2.1,8.14,4.19,11.67a48.83,48.83,0,0,0,7.36,9.73,42.17,42.17,0,0,0,4.61,3.48c1.44,1.07,3.17,3.13,5.06,3.25a12.49,12.49,0,0,0,.9-3.85c.06-1.08-.3-2.29.09-3.33s2.28-2.6,3.33-1.4,0,4,1.2,5.52,3.25,3.1,4.73,4.51c.71.67,3.29,3.75,4,3.77,1.25,0,2.35-2.65,2.66-3.58a13.86,13.86,0,0,0,.32-2.21c.12-.66-.1-1.62,1.07-1.64,1.65,0,2,2.86,3.73,3.16a67,67,0,0,1,6.55-6.61c1-1,5-4.89,4.59-6.34-1.52-.83-2.89.74-4.56.37-6.53-2.38-11.72-31.55-36-34.34a1,1,0,0,1-.52,1.07c-11.71-12.87.23-26.52,13.79-30.39a26,26,0,0,1,11-.9c3.38.5,6.7,2.32,10.08,2.38a20.78,20.78,0,0,1,10.09,2.6c2.86,1.5,5.76,3.5,9,3.84-.45-4.69-4.13-9-6.09-13.14a24.22,24.22,0,0,1-2.52-7.45c-.34-3.32,1-.82,2.32-1.9.19-5.46-5.62-11.1-10.05-13.27a30.25,30.25,0,0,0-9-2.73c-1-.14-3.28.18-3.73-1s2-2,1.39-3c-2.69-.58-6.25,1.09-8.67,2a48,48,0,0,0-9.8,5.08,66.8,66.8,0,0,0-7.5,6.23c-1.41,1.34-4.07,3.3-4.57,5.29.52,0,1-.57,1.46-.18.71.53.07,2-.18,2.67a17.16,17.16,0,0,1-3.77,5.26c-3.14,3.35-6.87,6.17-10.34,9.16A114.87,114.87,0,0,0,210,48.59a49.72,49.72,0,0,0-3.83,4.75c-.81,1.15-3.12,3.79-2.89,5.36,1.88.63,3.94-1.54,4.08,1.8.09,2-1.83,3.75-3.19,5-3.62,3.26-8.59,5.1-13,7-9.41,3.93-19.52,6.9-28.29,12.21-8.28,5-14,12.56-19.42,20.36a132.58,132.58,0,0,1-8.72,11.67c-3.34,3.82-7.48,6.42-11.13,9.85,1.19.88,5-.93,6.42-.82s2.86.84,1.39,1.88c-1,.68-2.22.19-3.28,1.18a14,14,0,0,0-1.76,2.83c-1.41,2.28-2.92,4.5-4.44,6.71-3,4.45-6,9-9.37,13.2-1.68,2.11-3.47,4.13-5.31,6.09-1,1.06-4.51,3.52-4.74,4.92,4.3,2.52-1.42,2.79-.85,5.42,1.62,1,1.82,1.45.56,3.07s-2.62,2.38-3.45,4.14a14.5,14.5,0,0,0-1.08,5.94c0,1.36,1,5.46,0,6.53-1.48-.74-1.07-2.52-2-3.51-.91.64-16.5,22.11-16.72,23,2.07.82,1.54,2.29.46,3.71-1.67,2.19-3.57,4.06-5.1,6.41a37,37,0,0,1-5.1,6c-1.52,1.5-4.66,3.4-5.17,5.61,2.52,1.53.38,3.09-.73,4.94a93.1,93.1,0,0,0-4.49,8.57c-.63,1.35-3.47,5.69-2.3,6.88.58.59,7,1.09,3.87,3.33-1,.7-2.34-.27-3.31-.41-1.82-.26-1.72.58-3.21,1.06-1,.32-2-.35-3.1-.27a16.49,16.49,0,0,0-4.43,1.52C40.24,257,34.52,260.69,28.79,264c1.38,1.8,5.21.16,6.12,2.58,1.05,2.77-3.49,1.91-3.43,4,1.93,1.42,10.16.26,7,4.12-1.56,1.91-7.93,3-8.15,5.44a31.09,31.09,0,0,0,14.33,2.45c4.76-.47,10.58-.78,15-2.69s7.82-5.36,10.94-9.05c.77-.91,3.06-4.16,4.61-3.93,2.43.37-.4,3.7.25,4.85,1.12.28,3.59-2.55,4.37-3.18,1.75-1.43,3.47-2.89,5.13-4.43a92.59,92.59,0,0,0,9.12-9.46,40.16,40.16,0,0,0,6.56-10.16c.75-1.86,1.58-3.8,2.2-5.7.54-1.67.51-3.23,2.77-2.81-.33,1-1.18,3.74-.58,4.81,2.27-.34,5.26-4.14,6.76-5.74,2-2.17,4.74-3.2,6.64-5.58a25.21,25.21,0,0,1,2.5-3.22,19.16,19.16,0,0,0,3-2.69,32,32,0,0,1,2.91-3.26,13.66,13.66,0,0,0,2-3.17c.54-.89,1.44-1.28,2.13-2a22.79,22.79,0,0,0,2.54-3.74,51,51,0,0,0,4.52-9.39,41.82,41.82,0,0,0,2.59-10.5c.11-1.21-1-9.28.6-9.7,2.68,1.77,1.46,7.05,2.29,9.8,3.91-.27,7.75-4.79,10.53-7.16a12.66,12.66,0,0,1,4.9-2.84c.7-.2.8,0,1.53-.43,1-.61,1.94-2.35,2.65-3.28,6.09-7.89,10.54-16.87,15.92-25.23,1.55.67,1.61,3.7,1.16,5-.67,2-.77.9-2.24.48-1.42.56-2.58,4.21-3.33,5.52-1.06,1.87-2.13,3.74-3.26,5.58-2.55,4.19-5.43,8.17-8.33,12.12-2.65,3.6-5.31,7.24-8.14,10.69-.65.78-2.24,3.39-3.39,2.18-1.3-1.37,1.48-3.76,1-5.28-1.39-.09-3.46,2-4.5,2.73-1.47,1.05-3.76,2-5,3.25-1.06,1.06-1.1,3.16-1.48,4.58a48.94,48.94,0,0,1-1.87,5.51c-3.11,7.6-8.66,13.07-12.83,19.87a23.16,23.16,0,0,1-3.23,4.14c-1.41,1.4-3.25,2-4.69,3.29-2.75,2.49-3.56,6.18-4.27,9.64-1.51,7.42-5.43,19-.07,25.73.36-1.47-.5-4.24,1.68-4.56,1.2,3,1.1,6,1.69,9.09a26.81,26.81,0,0,0,2.69,7.33,64.48,64.48,0,0,0,10.24,14.5c8.25,8.74,18.57,15.27,28.86,21.34.1-2.08-3-7.75-.5-9.15,3.45,2,5.26,6.14,8.79,8.31,4.47,2.75,9.29,5,13.89,7.57,4.16,2.29,8.1,4.9,12.18,7.29,1.38.8,3.06.87,4.13,2.09,1.47,1.67,1.54,3.29,3.84,4.33-.07-2.57-2.6-6.28-.45-8.43,1.07-.08,3.06,2.44,3.77,3.09,1.41,1.32,2.77,2.69,4.06,4.13,1.06,1.19,1.86,2.63,3.55,2.79.84.08,1.2-.51,2.08,0s1.27,1.6,1.8,2.31a118,118,0,0,1,7.11,9.83,33.89,33.89,0,0,1,2.63,5.12c.76,2,.78,4.65,1.71,6.47s.45.45,2.15.7c1.31.2,1.41,1.21,1.53,2.48.36,3.9-.5,8.24-1.18,12.06-.77,4.37-1.89,8.65-3.06,12.93-1.12,4.09-2.91,8.62-2.92,12.9,2.08-.94,2.47-2.32,3.73-4.11.58-.84,2.53-3,3.62-1.45.49.67-1.88,5.65-2.09,6.46a52.13,52.13,0,0,0-1.25,7.65c-1,10.19.14,21.69-4.08,31.26a11.9,11.9,0,0,1-1.45,2.55c-.33.44-1.7,1.34-1.8,1.87-.45,2.4,2.18.71,3.52.48a11.11,11.11,0,0,0,5-1.68,44.06,44.06,0,0,0,6.44-4.39c1.29-1.14,2.25-3.59,3.82-4.25.89-.38,1.89-.3,2.18.74s-1.35,1.92-1.9,2.51c-1,1-6.26,10.88-4.23,11.52,2.21-1.76,3.61-4.29,5.83-6s3.12-1.59,4.14.71c.25.56,0,1.27.67,1.59s1.5-.7,2.26-.31c1.56.81.17,4.57,2.05,4.94,1.87-.84,1.42-4,3.58-4.77,9.14,5.07,13.32,12.57,29.72,1.3,0-.68-4.9-7.53-.73-5.29,2.1,1.13,3.94,7.86,7,7.36.1-2.32-1.31-4.65-.07-7,2.45.64,4,2.73,6.41,3.41.77.21,3,.69,3.75.23C301.45,447.27,302,446.68,300.88,446.5Z"></path><path class="a" d="M217.33,51.19c4.84-3.61,9.95-.32,9.62,5.32-.15,2.69-1,5.22-1.55,7.84-.48,2.33.66,5.65-.69,7.68-2.12-.53-1.6-3.28-3.75-4-2.59-.8-4.41.07-6.26-2.62C211.71,61.13,213.23,54.27,217.33,51.19Z"></path><path class="c" d="M201.12,142.53c5.33-7.58,7-16.75,0-17.15s-41.38,43.47-56.23,52.68-16.09,30.26-29.1,39.69c-4.52,3.28-8.31,10.39-11.33,18.32a2.7,2.7,0,0,1,1.14,0c-.33,1-1.18,3.74-.58,4.81,2.27-.34,5.26-4.14,6.76-5.74,2-2.17,4.74-3.2,6.64-5.58a25.21,25.21,0,0,1,2.5-3.22,19.16,19.16,0,0,0,3-2.69,32,32,0,0,1,2.91-3.26,13.66,13.66,0,0,0,2-3.17c.54-.89,1.44-1.28,2.13-2a22.79,22.79,0,0,0,2.54-3.74,51,51,0,0,0,4.52-9.39,41.82,41.82,0,0,0,2.59-10.5c.11-1.21-1-9.29.6-9.7,2.68,1.77,1.46,7.05,2.29,9.8,3.91-.27,7.75-4.79,10.53-7.16a12.66,12.66,0,0,1,4.9-2.84c.7-.2.8,0,1.53-.43,1-.61,1.94-2.35,2.65-3.28,6.09-7.89,10.54-16.87,15.92-25.23,1.55.67,1.61,3.7,1.16,5-.67,2-.77.9-2.24.48-1.42.56-2.58,4.21-3.33,5.52-1.06,1.87-2.13,3.74-3.26,5.58-2.55,4.19-5.43,8.17-8.33,12.12-2.65,3.6-5.31,7.24-8.14,10.69-.65.78-2.24,3.39-3.39,2.18-1.3-1.37,1.48-3.76,1-5.28-1.39-.09-3.46,2-4.5,2.73-1.47,1.05-3.76,2-5,3.25-1.06,1.06-1.1,3.16-1.48,4.58a48.94,48.94,0,0,1-1.87,5.51c-3.11,7.6-8.66,13.07-12.83,19.87a23.16,23.16,0,0,1-3.23,4.14c-1.41,1.4-3.25,2-4.69,3.29-2.75,2.49-3.56,6.18-4.27,9.64-1.51,7.42-5.43,19-.07,25.73.36-1.47-.5-4.24,1.68-4.56,1.2,3,1.1,6,1.69,9.09a26.81,26.81,0,0,0,2.69,7.33,64.48,64.48,0,0,0,10.24,14.5,92.09,92.09,0,0,0,13.7,11.69c-2.38-4.06-4.89-8.11-5.81-10.92-2.84-8.75-2-19.24-2-25.65s31.5-49.42,40.89-61.38S195.78,150.11,201.12,142.53Z"></path><path class="c" d="M197.88,347.63c-.4-2.61-.74-5.23-1.07-7.85-.22-1.71-.07-4.32-1-5.8-2.16-3.37-7.76-5.85-11.16-7.77-3.9-2.21-7.92-4.19-11.82-6.4s-7.45-5.82-11.54-7.32c-.57,1.52,5,10.8,1.62,10.66-1,0-4-4.24-5.06-5.13a64.37,64.37,0,0,0-6.64-4.84c-4.6-3-9.41-5.69-13.82-9a35,35,0,0,1-5.77-5.1c-.75-.88-3.09-5-4.35-4,.67,6,2.19,12,3.2,18,2.84-.3,2.71.56,2.67,3.46,0,3.26-.54,6.5-.55,9.75,0,1.06.34,7.5,1.66,6.25.82-.77-.39-7,2.34-5.89.82.32,1.12,5.72,1.36,6.79a84.16,84.16,0,0,0,2.43,8.51c.52,1.57,1.24,5.68,2.69,6.73,1.3.95,2.56-.43,3.59,1.19,1.33,2.1.79,6.71.51,9a24.52,24.52,0,0,1-2,7.06c-2.14,4.77-5.59,8.28-9.39,11.75-2.72,2.49.8,2-.42,4.43-1.11,2.16-4.34,4.38-6.11,6.05-4.15,3.91-8.38,7.77-12.76,11.41-4.11,3.41-8.57,7.61-13.41,9.92a16.26,16.26,0,0,1-7.24,1.5c-2.17,0-5.24-.46-7.18.86,1.52,2.19,5.32,2.9,7.71,2.91,3.41,0,6.67.48,10-.25,1.07-.24,3.37-1.6,4.45-1.29,1.58.46,1.38,1.66.78,2.64,15.15-8.38,29.76-24.68,37.88-31.63,17.14-14.69,12.71-34.67,22.48-39.46C179.48,341.18,189,346.28,197.88,347.63Z"></path><path class="c" d="M310.62,250.76c-3.48-5.33-19.14-18.91-24.74-23.7s-11-12.68-11.95-25.65C273.4,194,279,182,287.85,180.77c-.25-.44-.49-.88-.73-1.32-1.5-2.77-2.85-5.61-4.17-8.47-.6-1.29-3.59-6-2.69-7.27,1.8-2.43,2.95,1,3.47,2.17.35.78,3.25,4.79,4.37,3.78.2-1.27-3.16-4.85-3.8-6.1a72,72,0,0,1-3.42-7.8c-2-5.33-3.58-10.82-5.5-16.18-1.13,2-1.53,4.76-2.24,6.94q-1.27,3.91-2.63,7.82c-1.79,5.17-3.81,10.22-6,15.22s-5,9.73-7.3,14.69a21,21,0,0,0-2,6.42c-.21,1.73,1,5.53-.59,6.76-2-.84-3-8.07-5.12-5.62-2.56,2.91,1.21,7.76,2.79,10.1,2.53,3.75,5.35,7.28,7.95,11,.91,1.29,4.62,9.61,6.13,9.23.78-1.51-3.13-8.25.79-7,2.48.78,3.85,6.26,5.23,8.23,2.27,3.24,4.48,6.55,6.57,9.91.7,1.12,4,8.61,5.39,8.39.55-1.05.24-6.71,2.74-4.52.73.64,1.23,2.45,1.77,3.31a29.73,29.73,0,0,0,2.49,3.38c3.7,4.33,9,8.33,14.58,9.67a24.57,24.57,0,0,0,5.34.54c.39,0,.93,0,1.51.1Z"></path><path class="a" d="M182.07,163.45c-.7,1-1.39,3.4-3,3.21s-1.08-2-.59-3.09c1.61-3.47,4.81-6.74,6.92-10,2.52-3.87,4.91-7.83,7.46-11.69,2.29-3.48,4.6-7.65,7.48-10.67,1.6-1.68,4.23.54,2.92,2.32-.85,1.15-3,2.09-4.09,3.15a37.79,37.79,0,0,0-3.76,4.32C190.16,148,186.92,156.23,182.07,163.45Z"></path><path class="d" d="M114.2,432.14c1.79-1.18,4.53-1,6.88-.77-.19,3.34-3.75,7.24-1.65,10.48,3.35-.2,6.27-8.66,9.37-7.65,1.53,4.22-3.36,10.57-.38,14.7,2.74,3.79,5.09-6.57,7.66-6.38.92.07,2.28,3.64,2.92,4.51a26.59,26.59,0,0,0,4.79,5,123.65,123.65,0,0,0,12.93,8.74c2.06,1.26,2.54.46,2.85-1.72.27-1.86.63-3.11,2.38-4.09a9.51,9.51,0,0,1,5.71-1.16c.82.13,2.81.62,2.88,1.69s-1.11,1.34-2,1.87a59.28,59.28,0,0,0-6.25,4.31c-1,.83-3.22,3-.84,2.91,2.2-.12,4.25-2.64,6.14-3.59a8.49,8.49,0,0,1,6.75-.45c3.79,1.1,8.8,5.08,7,9.62-1.66,4.15-8.08,4.93-11.88,5.26a206,206,0,0,1-35-.07c-11.1-.91-19-7.16-25.68-15.66-1.22-1.53-2.24-3.56-3.7-4.85-1.76-1.57-3.79-3.06-5.66-4.57-4.08-3.31-8.66-5.24-13.37-7.43-8.49-3.93-13.67-16.17-7.39-24.13a9,9,0,0,1,5.79-3.57c2.58-.36,3.94,1.21,6.29,1.73,2.66.58,5.44-.25,8.09.46,1.37.36,1.66.66,3.11.4,1.63-.29,2.94-.86,4.61-.62-3.06,5-7,8.94-10.63,13.19,2.09,2.43,4.33-1,6-2.26,1.27-1,6-4.32,7.59-3.31-.45,1.64-3.63,4.36-3,6.2.86,2.42,3.48-.64,4.93-.49.82,1.51-.61,3.37.61,4.92C113.4,434.61,113.43,433.13,114.2,432.14Z"></path><path class="d" d="M254.83,447.65c.16-1.43.66-3.08,2-3.85,1.92,1.18,2.71,3.61,4.21,4.43.51-1.23,1-3,1.53-3.86,1.15-2,2.56-4.94,4-5.66.47.26.83,1.34,1.05,2.33,2.51,6.29,2.49,8.25,6.07,10a6.51,6.51,0,0,1,.32-6c2.39.69,4.57,3.31,7.27,4.5.95-.2,2.22-.83,3.25-.55,1.25.34,1.92,1.48,2.82,2.37,1.2,1.17,4.72,5.16,6.5,4.48,2.59-1-1.46-5.43-1.28-7.31,1.25,0,2.3.86,3.43,1.26a13.34,13.34,0,0,0,4.74.61c3.32-.05,4.16-1.65,6.56-3.52s4.25-2.47,5.3-5.4c.88-2.44,1.35-4.3,3.61-5.82,3.56-2.41,9.61-2.82,11.75,1.68,1.51,3.18-.33,3.84-2.51,5.66s-3.78,4-3.12,6.88c1.17-.21,2.2-2.42,3-3.26a7.79,7.79,0,0,1,4.85-2.76c2.93-.3,4.6,1.61,5.11,4.34a25.28,25.28,0,0,0-5.65,3.5c-1.1,1-3.91,4.17-2.72,5.83,1.54.07,3.12-2.82,4.31-3.69,1.56-1.15,5.76-3.37,7.32-.85,1,1.6-.93,5.11-1.92,6.33a14.64,14.64,0,0,1-6.88,4.6,48.26,48.26,0,0,0-6.83,2.93c-2.36,1.15-5.27,1.57-7.84,2.15s-5.09.49-7.65.83c-3,.39-5.65-.28-8.63-.53-12.33-1-24.3-6.26-36.84-5.29-11.83.92-22.4,11.53-34.62,6.54-5.49-2.25-6.13-8.41-5-13.62.54-2.56,1.35-5.79,3.78-7.06,2.64-1.38,5.68-3.84,8.58-4.56l.22.18c-.75,3.17-1.38,6.36-1.94,9.56-.37,2.14-1.33,4.12,1.34,4.52.64-2.8,2.42-5,4.2-7.15,1.14-1.4,2.68-4.51,4.75-4.58,1.36,1.15-.81,3.83.36,5.07,1.46,1.53,2.65-1.14,3.92-1.52,1.52,2,.05,6.07,2.79,7.19,1.8-1,2.49-3.25,3.08-5.05C253.72,452.48,255.54,448.62,254.83,447.65Z"></path><path class="d" d="M237.74,67.37c-1.4-6.09-4-10.93-.33-16.83a23,23,0,0,1,13.18-9.41,29.08,29.08,0,0,1,16.71-.06A31.1,31.1,0,0,1,275,44.66c1.94,1.23,4.35,3.9,6.74,4.13,2.11-2.79-2.86-3.2-2.94-5.44,1.93,0,3.71,1.67,5.34,2.53,2,1.08,4.59,1.64,6.46,2.95,2.44,1.7,4.27,8.31,1.41,10.37s-8.36-2-11-2.86c-4.79-1.47-10-2-14.91-2.66a71.89,71.89,0,0,0-15.71-.77c-4.13.4-10,2.72-5.76,7.42,2.95,3.23,7.26,4.38,11.5,4.53,5,.18,8.25-1.67,12.56-3.74,2-.94,3.77-1.7,5.45-.07s2.77,4.11,4.46,5.87a10.41,10.41,0,0,0,5.76,3.37c2.85.47,5.08-1.59,7.77-1.34.91,2.69-2,5.19-3.8,6.67a9.39,9.39,0,0,1-3,2.07c-.91.29-1.87,0-2.67.68-1.8,1.41-.73,4,.14,5.72.74,1.42,1.09,1.69,1.19,3.32a17.71,17.71,0,0,1-.68,5c-2.37.41-2.79,3.51-4.39,4.94-1.36,1.21-5.55,1.92-5.15,4.35-1.12,1.28-3.76,1-5,0-4.25-3.14-6.54-1.35-9.65.39-1.23.7-6.39.79-7.92.14-9.53-4.08-12.21-15.64-2.81-23.07-.11-.89.86-1.84,1.53-2.4a13.35,13.35,0,0,1-5.34-5.37A12.32,12.32,0,0,1,237.74,67.37Z"></path><path class="a" d="M282.57,71.71c-1-.71-2.08.48-3.16.25s-1.64-1.65-2.71-2c-2.24-.64-3.44,2.69-5.88,2-1.21-.37-1.82-1.8-3-2.28s-2.2.14-3.47.23c-1.85.13-5.15-2.86-5.42-.15-.41,4.14,7.6,7.4,10.82,7.76a15.32,15.32,0,0,0,7.1-.87C278.65,76,282.74,74.08,282.57,71.71Z"></path><path class="a" d="M248.56,88.31c2.41.68,4.79-1.9,7.16-2.27,2.7-.42,5.27-.32,8-.92a14.51,14.51,0,0,1,8.42.94c2,.8,4.48,3.85,6.7,3.51,1.67-5.85-11.06-7.72-14.68-7.86C259.8,81.55,249,82.11,248.56,88.31Z"></path><path class="a" d="M258.12,49.23c6.17.66,12.13,2.12,18.44,1.82-1.34-2.83-7-2.83-9.59-3.06C265.21,47.82,258.68,46.57,258.12,49.23Z"></path><path class="a" d="M253.11,47.57a.89.89,0,1,0,.34,1.73C254.46,49.07,254.18,47.53,253.11,47.57Z"></path><path class="d" d="M326.55,257.13c2.74-.58,4.64-2.45,6.58-4.27a7.61,7.61,0,0,0,1.66-2.78,3.43,3.43,0,0,1,1-1.37,2.27,2.27,0,0,1,.87.7,3.83,3.83,0,0,0,2.1,1.08,49.42,49.42,0,0,0,5.65.76,4,4,0,0,1,3.19,2.18,31.49,31.49,0,0,0,2.73,3.7,15.77,15.77,0,0,1,3.31,11.17,14.32,14.32,0,0,1-6.93,11,6.64,6.64,0,0,1-6.21.54c-2.16-.83-2.77-2.41-1.83-4.5a16.18,16.18,0,0,1,1.76-2.79,12.16,12.16,0,0,0,1.78-10.67,9.24,9.24,0,0,0-1-2.69,12.5,12.5,0,0,0-.8,3.89c-.15,1.18-.21,2.38-.37,3.57a10.44,10.44,0,0,1-3.87,7.14c-2.35,1.85-4.74,3.59-7.77,4.14-2.44.45-3.87-.42-4.61-2.76-.86-2.72-.48-5.11,1.83-7,1.29-1.06,2.6-2.11,3.88-3.2a9.37,9.37,0,0,0,2.72-3.48,4.93,4.93,0,0,0-.55-4.66,2.49,2.49,0,0,0-2.15,2.27,7.86,7.86,0,0,1-3.45,5.56c-.45.36-.91.7-1.37,1.05-3.36,2.56-4.05,3.76-4.58,8.11a4.61,4.61,0,0,1-4.25-1,5.63,5.63,0,0,1-1.68-6.13,4,4,0,0,1,3.65-2.82,6.42,6.42,0,0,0,2.91-1c1.69-1,3.45-1.88,5.18-2.81a5.37,5.37,0,0,0,1.45-.85C327.62,258.27,326.53,257.93,326.55,257.13Z"></path><path class="d" d="M22.3,270.26c.1-2-2.25-2.23-3.28-3.57-1.38-1.82-1.41-4.69-1.53-6.84-.27-4.52.08-9.63,4.19-12.4s7.11-.1,6.74,4.38a29.7,29.7,0,0,1-2.1,7.89c-.35.93-.42,1.52-1.19,2.13-.93.73-2.34.31-3.27,1.21.32,1.91,2,2.61,3.68,3,1.21.25,4.59-.12,5.42,1-.6,2-7.2,2.14-5.27,4.65s7.38.14,9.86,1.93c-.74,3.18-5.37,2.58-8.75,6-1.78,1.8-2.25,1.79-4.92,1.14a20.56,20.56,0,0,1-5.79-2.4A27.54,27.54,0,0,1,3,260c-.66-3.56-.72-9.22,2.52-11.61,2.7-2,6.52-1.81,8.32,1.16,2.38,3.93,1.95,8.62,1.45,12.92C14.75,267.07,17.83,269.83,22.3,270.26Z"></path><path class="d" d="M339.43,241.84c3.6-.32,7.05-1.4,10.63-1.83,3-.36,5.87-.33,8.59-1.94,1.48-.88,3.65-3.22,5.62-2.53s2.75,4.53,2.38,6.24c-1.14,5.42-8.11,8.62-13,8.95a9.78,9.78,0,0,1-8.24-3.16,21.84,21.84,0,0,0-3-3C341.21,243.7,340,243.22,339.43,241.84Z"></path><path class="d" d="M218.47,54.67c2.14-2.8,5.32-1.94,5.69,1.38S223.22,63,222,66c-4.63.71-7.34-4-5.61-8,3.48.62,1.69,3,3.1,5C223.55,61.62,221,56,218.47,54.67Z"></path><path class="e" d="M252.31,56c2.39-.12,4.3-.25,6.22-.31a12.49,12.49,0,0,1,4.25.51c1,.33,1.85.86,2,2a2.38,2.38,0,0,1-1.63,2.45A15.42,15.42,0,0,1,255.55,62a15.74,15.74,0,0,1-4.79-.86,5.42,5.42,0,0,1-1.65-.86c-1.71-1.41-1.11-2.73-.12-4,.24-.3.58-.28.92-.28Z"></path><path class="a" d="M255.77,59A1.78,1.78,0,0,0,254,57.17a1.83,1.83,0,1,0,0,3.65A1.76,1.76,0,0,0,255.77,59Z"></path><path class="e" d="M286.12,67.26a7.21,7.21,0,0,1-6.6-4.14c-1.06-1.91.05-3.59,2.25-3.49a15.15,15.15,0,0,1,8.2,3,3.46,3.46,0,0,1,.6.61,1.67,1.67,0,0,1-.31,2.79A7.55,7.55,0,0,1,286.12,67.26Z"></path><path class="a" d="M285.88,63.38A1.9,1.9,0,0,0,284,61.55a1.85,1.85,0,0,0-1.8,1.87,1.75,1.75,0,0,0,1.82,1.8A1.84,1.84,0,0,0,285.88,63.38Z"></path><path class="a" d="M261.47,98.93c1.82-1.11,2.14-1.39,3.81-.28.88-.53.11-2,1.49-2.41.22,1.59.63,4.34,2,5.44.48,4.33-2-.57-2.88-1.21-.83.63.55,3-1.39,2.55-1.44-.32-.95-2-2.57-1.92-.54,0-1.57.9-2,1.07a3.06,3.06,0,0,1-1,.13h0C257.55,101,260.56,99.5,261.47,98.93Z"></path><path class="a" d="M245.47,68.52c.94.7.84,2.92,1.43,4,1.17,2.08,5.39,2.78,5.64,5.27a4.72,4.72,0,0,1-2.82-.48c-1.16-.41-5.32-2.9-6-6.21C243.62,69.8,243.68,67.18,245.47,68.52Z"></path><path class="a" d="M243.15,84.14c.84-1.66,3-5.94,5.43-5.17l.56.45c-3.48,3.34-5.83,7.13-5.06,12.17A11.81,11.81,0,0,0,247.25,98c.52.57,4.78,4,4.24,4.38-5.22-.14-9-4.54-9.86-9.45A13.9,13.9,0,0,1,243.15,84.14Z"></path><path class="a" d="M239.79,67.07c.83-.55,1.58,1.1,1.82,1.59.46.94.59,1.24.88,1.92a4,4,0,0,1,.08,1.8c-1.32,0-2.26-1.22-2.76-3.47C239.84,68.3,239.57,67.69,239.79,67.07Z"></path><path class="a" d="M260,449.71a18.64,18.64,0,0,1-3.19-5.91,1.11,1.11,0,0,1,1-.36c1.13.23,2.72,3.17,3.2,4.79A4.21,4.21,0,0,1,260,449.71Z"></path><path class="a" d="M281,449.54c-2.68.19-4.14-2.4-6.53-3.09-1.21,2.15.95,3.87.76,5.85-2.21,2-5.81-3.49-6.4-4.88-.66-1.55-.81-4.35-1.22-6.38,2.31-.09,2.2,5.46,3.95,6.75,1.2-1.78-.56-6.3,2.51-5.05,1.18.48,2.43,2.05,3.41,2.86,1.22,1,2.55,2.7,3.79,3.9Z"></path></svg> 